<?xml version="1.0" standalone="no"?><!DOCTYPE svg PUBLIC "-//W3C//DTD SVG 1.1//EN" "http://www.w3.org/Graphics/SVG/1.1/DTD/svg11.dtd"><svg t="1616235307666" class="icon" viewBox="0 0 1024 1024" version="1.1" xmlns="http://www.w3.org/2000/svg" p-id="7717" xmlns:xlink="http://www.w3.org/1999/xlink" width="44" height="44"><defs><style type="text/css"></style></defs><path d="M538.144681 588.255319m-435.744681 0a435.744681 435.744681 0 1 0 871.489362 0 435.744681 435.744681 0 1 0-871.489362 0Z" fill="#73D36E" p-id="7718"></path><path d="M953.191489 529.211915l17.211915 6.754042c0-8.279149-2.396596-16.77617-3.70383-24.837446l-89.763404-35.29532L801.770213 392.170213l21.787234-14.161702 63.618723-46.406809c-4.357447-5.882553-8.497021-11.765106-13.07234-17.429787l-55.993192 40.96-64.27234-59.697021 13.725957-77.562554c-6.754043-4.139574-13.290213-8.497021-20.044255-12.200851l-13.725957 84.098724-107.628937 66.668936-70.590638 2.178723s-26.580426-35.295319-39.217021-49.674893l208.939574-113.947234c-8.279149-3.921702-16.558298-7.625532-25.055319-11.11149l-198.699574 108.936171c-35.077447-39.652766-57.73617-65.361702-68.629788-75.601703l26.798298-57.300425c-9.150638 1.742979-18.083404 3.70383-27.234042 6.100425l-75.165958 154.689362-89.327659-74.076596c-5.882553 4.575319-11.329362 9.368511-16.994043 14.161702l130.723404 108.936171L247.067234 413.957447l-89.763404-37.25617c-3.485957 6.318298-6.754043 12.854468-9.804256 19.390638l90.417022 36.820425 26.362553 87.148937-156.650213 5.011063c0 7.189787-2.396596 14.597447-3.050213 21.787234l158.828937-5.011063-67.540426 107.193191-91.724255-95.428085c0 9.804255-1.307234 19.826383-1.525107 29.848511l80.612766 83.227234-6.53617 103.271489-23.530213 21.787234c3.485957 6.53617 7.40766 12.854468 11.11149 19.390638l23.31234-21.787234 108.93617 88.674043-20.697872 57.954042c6.100426 4.575319 11.982979 9.368511 18.301277 13.725958l23.748085-66.668936L409.164255 849.702128l-12.200851 149.89617 21.787234 6.754042 5.228936-65.361702 66.668937 1.525107 26.14468 81.484255h23.748086l-26.580426-80.612766h22.876596l60.132766 24.18383v52.289362c7.40766 0 14.597447-1.960851 21.787234-3.268086v-132.902127l33.334468-39.652766 133.991489 102.617872c6.318298-4.357447 12.200851-8.932766 18.083405-13.508085l-34.205958-26.144681L821.814468 718.978723l48.36766-13.290212 43.574468 103.925106c4.793191-8.061277 9.150638-16.122553 13.508085-24.401702l-30.72-73.640851 54.468085 16.994042c2.396596-6.971915 4.357447-13.725957 6.318298-21.787234l-58.60766-18.519149z m-99.785532-47.060426l-84.316595 48.36766-29.194894-100.439149 43.574468-27.234043z m-198.699574 68.84766L642.723404 490.866383l77.344681-48.585532 29.412766 100.874894z m21.787234 20.044255l-23.31234 149.89617-50.764256-57.518297-13.508085-49.021277 60.568511-41.395745z m65.361702-259.921702l59.261277 55.121702-27.669787 16.558298-119.176171-18.083404z m4.139575 89.545532l-107.628937 67.540426-1.525106-86.059575z m-112.204256 156.868085l-50.982127 34.641702L555.574468 494.35234l66.886809 3.70383z m-97.388936-50.32851l43.574468 152.510638-196.085106 33.770213v-52.507234zM381.276596 612.439149v-113.075745l26.798298-13.07234 111.76851 6.100425z m183.44851-232.469787l47.714043-1.089362 3.268085 96.953191-108.93617-6.100425z m-83.445106 88.45617l-65.361702-3.70383-5.446809-81.048511 128.544681-3.050212z m-107.628936-133.337872l47.49617-98.042554c20.697872 21.787234 71.026383 79.305532 108.93617 122.008511l-123.533617 3.050213z m-114.382979 96.735319l128.980426-43.574468 5.446808 79.523404-105.668085 51.635745h-1.960851z m41.395745 421.365106l-102.617873-83.227234 5.882554-91.288511L315.914894 705.034894z m-85.62383-194.342128l71.026383-112.64L359.489362 510.039149l1.089361 183.012766z m106.975319 199.353192l16.122553-148.153192 31.155745 7.40766h4.357447l89.109787-15.468936 39.652766 91.942128z m102.835745 61.004255l6.318298-76.908936 68.411915-24.18383 20.697872 103.489362z m171.247659 24.619575l-53.596595-21.787234-21.787234-106.975319h1.307234l73.858723-27.88766z m-71.68-152.510639L484.98383 697.191489l103.489361-17.865532 57.082554 65.361703zM618.539574 849.702128v-71.026383l43.574469-16.776171 38.563404-10.675744zM751.659574 893.276596l-85.188085-65.361702 71.897873-87.148937 59.043404-16.340425z m-78.434042-155.778724l25.926808-167.543829 61.004256-5.011064 107.193191 118.958298z m209.157447-69.501276l-105.232341-116.997447 94.120851-54.03234 61.657873 24.401702z" fill="#BBF4B5" p-id="7719"></path><path d="M500.017021 186.062979a38.12766 22.658723 0 1 0 76.255319 0 38.12766 22.658723 0 1 0-76.255319 0Z" fill="#BBF4B5" p-id="7720"></path><path d="M536.401702 186.498723c-9.368511 4.793191 35.513191-107.411064 99.785532-141.834893a89.32766 89.32766 0 0 1 58.60766-9.150639c46.406809-35.077447 119.829787-24.619574 108.93617-21.787234-15.686809 4.357447-40.524255-5.446809-84.970213 29.848511a89.109787 89.109787 0 0 1 21.787234 14.597447 49.674894 49.674894 0 0 1 16.122553 57.082553A48.149787 48.149787 0 0 1 708.085106 144.231489a48.803404 48.803404 0 0 1-43.574468-38.345532 66.668936 66.668936 0 0 1 12.854468-49.892766 66.886809 66.886809 0 0 0-31.155744 7.843405c-56.864681 30.502128-93.902979 114.600851-109.80766 122.662127z m165.365107-126.583829a43.574468 43.574468 0 0 0-4.793192 6.318297 45.317447 45.317447 0 0 0-3.921702 30.284256 18.737021 18.737021 0 0 0 34.42383 6.318298c6.100426-14.161702 0.871489-32.898723-25.708936-42.920851zM256 198.481702a10.893617 10.893617 0 0 0 5.664681-2.396596A423.54383 423.54383 0 0 1 485.855319 132.902128a10.893617 10.893617 0 0 0 0-21.787234A445.548936 445.548936 0 0 0 250.553191 178.219574a10.893617 10.893617 0 0 0 5.664681 20.044256zM210.900426 230.726809a10.893617 10.893617 0 0 0 6.971914-2.396596l6.318298-5.011064a10.893617 10.893617 0 1 0-13.508085-17.211915l-6.754042 5.446809a10.893617 10.893617 0 0 0 6.971915 19.390638zM154.689362 285.412766a10.893617 10.893617 0 0 0 8.714893-3.70383c8.714894-10.24 18.083404-20.044255 27.88766-29.630638a10.893617 10.893617 0 1 0-15.251064-15.686809c-10.24 10.022128-20.044255 20.48-29.194894 31.155745a10.893617 10.893617 0 0 0 8.279149 18.083404z" fill="#604D42" p-id="7721"></path><path d="M669.957447 150.76766a10.893617 10.893617 0 1 0-8.932766 19.826383 424.851064 424.851064 0 1 1-524.636596 145.538723 10.893617 10.893617 0 1 0-17.865532-12.418723 446.638298 446.638298 0 1 0 551.434894-152.510639z" fill="#604D42" p-id="7722"></path></svg>